<svg width="200" height="64" viewBox="0 0 200 64" fill="none" xmlns="http://www.w3.org/2000/svg">
<path d="M16.7496 42.9361C17.9456 42.9361 18.6284 43.4135 19.184 44.1259L18.6708 44.5899C18.4644 44.2791 18.1836 44.027 17.855 43.8572C17.5263 43.6872 17.1604 43.6052 16.792 43.6187C15.1838 43.6187 14.2012 44.923 14.2012 46.6021C14.2012 48.281 15.1838 49.6001 16.792 49.6001C17.1614 49.6103 17.5272 49.5254 17.8556 49.3533C18.1842 49.1811 18.4646 48.9274 18.6708 48.6156L19.184 49.0767C18.6284 49.8008 17.9456 50.2783 16.7496 50.2783C14.729 50.2783 13.4043 48.6424 13.4043 46.6006C13.4043 44.5587 14.729 42.9361 16.7496 42.9361Z" fill="black"/>
<path d="M23.1549 50.103V43.7767H21.1328V43.1104H25.93V43.7767H23.8947V50.103H23.1549Z" fill="black"/>
<path d="M29.2749 52.7677H28.5352V43.1101H29.2749V44.2107C29.5456 43.8204 29.9037 43.5012 30.3196 43.2795C30.7356 43.058 31.1974 42.9402 31.6669 42.9361C33.5033 42.9361 34.7373 44.3549 34.7373 46.5991C34.7373 48.8432 33.4989 50.2768 31.6669 50.2768C31.1946 50.2709 30.7308 50.1494 30.3145 49.9227C29.8981 49.6959 29.5416 49.3705 29.2749 48.974V52.7677ZM31.5397 43.6159C30.585 43.6159 29.6741 44.1958 29.2749 44.8621V48.3227C29.524 48.7045 29.8598 49.0198 30.2541 49.2416C30.6484 49.4634 31.0893 49.5854 31.5397 49.5971C33.0764 49.5971 33.9449 48.2929 33.9449 46.5991C33.9449 44.9051 33.0764 43.6159 31.5397 43.6159Z" fill="black"/>
<path d="M37.3203 46.5991C37.3203 44.5572 38.6158 42.9361 40.6232 42.9361C42.6584 42.9361 43.9392 44.5572 43.9392 46.5991C43.9392 48.6409 42.6584 50.2768 40.6232 50.2768C38.6158 50.2768 37.3203 48.6409 37.3203 46.5991ZM43.1424 46.5991C43.1424 45.0495 42.2462 43.6159 40.6232 43.6159C39.028 43.6159 38.1172 45.0495 38.1172 46.5991C38.1172 48.1487 39.028 49.5971 40.6232 49.5971C42.2462 49.5971 43.1424 48.1635 43.1424 46.5991Z" fill="black"/>
<path d="M46.916 50.1019V43.1123H47.6559V48.9272L51.5699 43.1063H52.3009V50.0961H51.5611V44.195L47.6267 50.1019H46.916Z" fill="black"/>
<path d="M56.9224 50.103V43.7767H54.9004V43.1104H59.6975V43.7767H57.6623V50.103H56.9224Z" fill="black"/>
<path d="M64.9249 42.9361C67.0172 42.9361 68.1708 44.6301 68.1708 46.6421V46.846H62.4189C62.4905 48.3657 63.4862 49.6255 65.1092 49.6255C65.5298 49.6317 65.9473 49.5488 66.3348 49.3818C66.7221 49.2149 67.0712 48.9676 67.3593 48.6558L67.7438 49.148C67.0596 49.8723 66.191 50.2768 65.0521 50.2768C63.0461 50.2768 61.6074 48.757 61.6074 46.5991C61.6074 44.572 63.0169 42.9361 64.9249 42.9361ZM62.4189 46.251H67.4164C67.4017 45.0613 66.6326 43.5875 64.9102 43.5875C63.2873 43.5875 62.4758 45.036 62.4189 46.251Z" fill="black"/>
<path d="M70.0059 49.5528C70.7179 49.5528 71.3583 48.714 71.7705 44.7032L71.9344 43.1104H76.2913V50.1H75.5501V43.7767H72.5675L72.468 44.7314C72.0133 49.3506 71.1872 50.277 70.0059 50.277V49.5528Z" fill="black"/>
<path d="M80.3994 43.1104V45.7159H82.9479C84.4422 45.7159 85.1689 46.8031 85.1689 47.9169C85.1689 49.0025 84.4378 50.103 82.9479 50.103H79.6582V43.1134L80.3994 43.1104ZM80.3994 46.3822V49.4234H82.9011C83.9246 49.4234 84.3822 48.7274 84.3822 47.9169C84.3822 47.1063 83.9435 46.3822 82.9011 46.3822H80.3994Z" fill="black"/>
<path d="M87.9727 50.103V43.1134H88.7125V46.1531H92.6133V43.1104H93.3532V50.1H92.6133V46.8164H88.7125V50.103H87.9727Z" fill="black"/>
<path d="M101.098 50.1022V49.2768C100.485 49.958 99.7178 50.2762 98.7587 50.2762C97.5774 50.2762 96.3535 49.4509 96.3535 47.9458C96.3535 46.4408 97.5627 45.6289 98.7587 45.6289C99.7134 45.6289 100.496 45.9471 101.098 46.6282V45.2094C101.098 44.1684 100.272 43.6033 99.247 43.6033C98.3931 43.6033 97.725 43.9007 97.0978 44.631L96.6854 44.1089C97.0126 43.7246 97.4203 43.4199 97.8786 43.2171C98.3367 43.0144 98.8339 42.9187 99.3332 42.937C100.728 42.937 101.838 43.6167 101.838 45.1811V50.1037L101.098 50.1022ZM101.098 47.1918C100.848 46.8789 100.531 46.6287 100.17 46.4606C99.8102 46.2924 99.4166 46.2108 99.0204 46.2221C97.8814 46.2221 97.1402 46.9658 97.1402 47.9593C97.1402 48.9526 97.8814 49.6828 99.0204 49.6828C99.845 49.6828 100.614 49.3645 101.098 48.7266V47.1918Z" fill="black"/>
<path d="M104.998 50.103L106.921 47.2373C105.795 47.1643 105.055 46.3539 105.055 45.1805C105.055 44.0071 105.824 43.1104 107.147 43.1104H110.564V50.1H109.81V47.2507H107.718L105.881 50.103H104.998ZM109.81 46.5844V43.7767H107.204C106.327 43.7767 105.824 44.3551 105.824 45.1805C105.824 46.0059 106.294 46.5844 107.204 46.5844H109.81Z" fill="black"/>
<path d="M123.449 50.1027L120.702 46.773L119.419 48.0043V50.1027H118.68V43.113H119.419V47.109L123.477 43.113H124.459L121.256 46.2659L124.445 50.1027H123.449Z" fill="black"/>
<path d="M126.225 46.5991C126.225 44.5572 127.52 42.9361 129.528 42.9361C131.563 42.9361 132.844 44.5572 132.844 46.5991C132.844 48.6409 131.563 50.2768 129.528 50.2768C127.52 50.2768 126.225 48.6409 126.225 46.5991ZM132.047 46.5991C132.047 45.0495 131.15 43.6159 129.528 43.6159C127.932 43.6159 127.022 45.0495 127.022 46.5991C127.022 48.1487 127.932 49.5971 129.528 49.5971C131.149 49.5971 132.047 48.1635 132.047 46.5991Z" fill="black"/>
<path d="M142.04 50.1027V44.0945L139.449 50.1027H139.179L136.559 44.0945V50.1027H135.828V43.113H136.809L139.315 48.8758L141.792 43.113H142.803V50.1027H142.04Z" fill="black"/>
<path d="M150.81 50.1027V43.7763H146.91V50.1027H146.17V43.113H151.551V50.1027H150.81Z" fill="black"/>
<path d="M159.295 50.1022V49.2768C158.683 49.958 157.914 50.2762 156.955 50.2762C155.774 50.2762 154.549 49.4509 154.549 47.9458C154.549 46.4408 155.759 45.6289 156.955 45.6289C157.909 45.6289 158.693 45.9471 159.295 46.6282V45.2094C159.295 44.1684 158.47 43.6033 157.445 43.6033C156.591 43.6033 155.922 43.9007 155.295 44.631L154.882 44.1089C155.209 43.7246 155.617 43.4199 156.075 43.2171C156.534 43.0144 157.03 42.9187 157.53 42.937C158.925 42.937 160.037 43.6167 160.037 45.1811V50.1037L159.295 50.1022ZM159.295 47.1918C159.045 46.8786 158.727 46.6282 158.367 46.4602C158.007 46.292 157.614 46.2106 157.217 46.2221C156.078 46.2221 155.338 46.9658 155.338 47.9593C155.338 48.9526 156.078 49.6828 157.217 49.6828C158.043 49.6828 158.813 49.3645 159.295 48.7266V47.1918Z" fill="black"/>
<path d="M163.412 50.103V43.1134H164.151V46.1531H168.052V43.1104H168.792V50.1H168.052V46.8164H164.151V50.103H163.412Z" fill="black"/>
<path d="M172.166 50.1019V43.1123H172.906V48.9272L176.821 43.1063H177.553V50.0961H176.813V44.195L172.878 50.1019H172.166Z" fill="black"/>
<path d="M180.715 50.103L182.638 47.2373C181.512 47.1643 180.772 46.3539 180.772 45.1805C180.772 44.0071 181.542 43.1104 182.864 43.1104H186.271V50.1H185.516V47.2507H183.424L181.592 50.103H180.715ZM185.527 46.5844V43.7767H182.908C182.031 43.7767 181.528 44.3551 181.528 45.1805C181.528 46.0059 181.998 46.5844 182.908 46.5844H185.527Z" fill="black"/>
<path d="M38.7062 25.3469H30.593V12.9708H26.5371V25.3469V29.4738V33.5992H30.593V29.4738H38.7062V33.5992H42.762V29.4738V25.3469V12.9708H38.7062V25.3469Z" fill="black"/>
<path d="M79.2685 17.102C80.526 17.1018 81.7528 17.4976 82.7801 18.2354C83.8074 18.973 84.5849 20.0162 85.0057 21.2216H89.2064C88.7381 18.8913 87.4928 16.7973 85.681 15.2937C83.8693 13.7903 81.6024 12.9696 79.2641 12.9708C76.5748 12.9708 73.9956 14.0573 72.0938 15.9914C70.192 17.9255 69.1234 20.5488 69.123 23.2842C69.123 26.02 70.1914 28.6436 72.0933 30.578C73.995 32.5124 76.5745 33.5992 79.2641 33.5992C81.6025 33.6 83.8694 32.7791 85.6812 31.2753C87.4929 29.7716 88.7382 27.6773 89.2064 25.3469H85.0057C84.5281 26.7242 83.5869 27.8852 82.3486 28.6246C81.1105 29.3642 79.655 29.6342 78.2398 29.3873C76.8246 29.1403 75.5409 28.3923 74.6158 27.2753C73.6906 26.1585 73.1837 24.7447 73.1846 23.2842C73.1862 21.6441 73.828 20.0716 74.9686 18.9124C76.1094 17.7532 77.656 17.102 79.2685 17.102Z" fill="black"/>
<path d="M144.171 17.1029C145.43 17.103 146.657 17.4997 147.685 18.2385C148.711 18.9773 149.489 20.0217 149.909 21.2281H154.106C153.638 18.898 152.393 16.8038 150.581 15.3004C148.769 13.7968 146.502 12.9762 144.163 12.9774C141.474 12.9774 138.895 14.064 136.994 15.9981C135.091 17.9321 134.023 20.5555 134.023 23.2909C134.023 26.0267 135.091 28.6502 136.993 30.5847C138.895 32.5191 141.474 33.6059 144.163 33.6059C146.502 33.6067 148.769 32.7857 150.581 31.282C152.393 29.7781 153.638 27.684 154.106 25.3536H149.906C149.427 26.7309 148.487 27.8919 147.249 28.6313C146.01 29.3707 144.555 29.6409 143.139 29.394C141.725 29.147 140.441 28.3989 139.515 27.282C138.59 26.1651 138.083 24.7514 138.085 23.2909C138.085 22.4781 138.242 21.6732 138.547 20.9222C138.854 20.1712 139.302 19.4888 139.867 18.9142C140.433 18.3396 141.103 17.8838 141.842 17.5729C142.581 17.2622 143.373 17.1025 144.171 17.1029Z" fill="black"/>
<path d="M172.565 15.2402L162.423 25.5551V12.9708H158.367V33.5992H162.423V31.3893L172.565 21.0758V33.5992H176.621V12.9708H172.565V15.2402Z" fill="black"/>
<path d="M99.552 12.9708H93.4668V17.0962H99.552V33.5992H103.608V17.0962H109.692V12.9708H103.608H99.552Z" fill="black"/>
<path d="M194.875 12.9708H187.776C185.894 12.9708 184.088 13.7314 182.756 15.0855C181.426 16.4396 180.678 18.276 180.678 20.1909C180.678 21.6328 181.102 23.0415 181.896 24.2359C182.691 25.4301 183.818 26.3552 185.134 26.8921L182.706 33.5992H187.071L189.311 27.4111H194.867V33.5992H198.923V12.9708H194.875ZM187.776 23.2842C187.371 23.2933 186.968 23.2199 186.591 23.0685C186.215 22.9171 185.871 22.6906 185.582 22.4023C185.292 22.1142 185.062 21.7701 184.904 21.3902C184.747 21.0103 184.667 20.6023 184.667 20.1903C184.667 19.7781 184.747 19.3701 184.904 18.9902C185.062 18.6104 185.292 18.2662 185.582 17.978C185.871 17.6898 186.215 17.4633 186.591 17.3119C186.968 17.1605 187.371 17.0871 187.776 17.0962H194.875V23.2842H187.776Z" fill="black"/>
<path d="M54.2838 12.9708L46.8184 33.5992H51.1841L52.6769 29.4738H61.2404L62.7332 33.5992H67.099L59.6336 12.9708H54.2838ZM54.1712 25.3469L56.958 17.645L59.7461 25.3469H54.1712Z" fill="black"/>
<path d="M119.186 12.9708L111.721 33.5992H116.091L117.584 29.4738H126.147L127.641 33.5992H132.007L124.535 12.9708H119.186ZM119.074 25.3469L121.86 17.645L124.649 25.3469H119.074Z" fill="black"/>
<path d="M14.3683 12.9708H10.0024L7.01828 21.2216L2.19336 33.5992H6.56503L8.17333 29.4738H18.4227V33.5992H22.48V12.9708H14.3683ZM18.4227 25.3469H9.77725L11.3855 21.2216L12.8754 17.102H18.4315L18.4227 25.3469Z" fill="black"/>
</svg>
