<svg width="126" height="17" viewBox="0 0 126 17" fill="none" xmlns="http://www.w3.org/2000/svg">
<g clip-path="url(#clip0_336_156)">
<path fill-rule="evenodd" clip-rule="evenodd" d="M4.921 9.25334H3.86633V15.3141H0V0.873599H3.86867V6.04258H4.92333C4.935 4.78777 5.00267 3.88468 5.12167 3.32875C5.24067 2.77282 5.49733 2.30993 5.88933 1.9378C6.28133 1.56567 6.76667 1.30246 7.34067 1.14362C7.91933 0.989322 8.60067 0.909904 9.38933 0.909904C10.178 0.909904 10.9223 0.991591 11.5103 1.16177C12.1007 1.33195 12.5907 1.61786 12.9757 2.02403C13.3607 2.42792 13.601 2.95208 13.7037 3.59196C13.804 4.23412 13.853 5.32555 13.853 6.86626V9.32595C13.853 10.8848 13.804 11.9762 13.706 12.607C13.608 13.2379 13.3653 13.7597 12.978 14.1773C12.5907 14.5948 12.0983 14.892 11.501 15.0781C10.906 15.2596 10.2013 15.3549 9.38933 15.3549C8.631 15.3549 7.96833 15.2732 7.399 15.1144C6.832 14.9533 6.356 14.6969 5.97567 14.3474C5.593 13.9935 5.341 13.6168 5.21967 13.2152C5.09833 12.8113 5.019 12.3075 4.98167 11.713C4.94433 11.1163 4.92567 10.3198 4.92567 9.32822V9.25788L4.921 9.25334ZM9.989 11.7584V4.60171C9.989 3.99359 9.95867 3.57835 9.89567 3.35144C9.83033 3.1268 9.66 3.01335 9.38467 3.01335C9.16533 3.01335 9.009 3.10184 8.918 3.27429C8.82467 3.45128 8.78033 3.89148 8.78033 4.60171V12.008C8.78033 12.3824 8.81533 12.6706 8.89 12.8725C8.96233 13.0767 9.121 13.1766 9.366 13.1766C9.58067 13.1766 9.73933 13.0949 9.83733 12.9293C9.93767 12.7682 9.98667 12.3756 9.98667 11.7584H9.989ZM15.1713 15.3163V3.48532H20.9907V5.5275H18.865V15.3163H15.169H15.1713ZM30.7743 7.17485H26.9173V4.66071C26.9173 3.93006 26.873 3.47397 26.7913 3.29245C26.7097 3.11319 26.5277 3.02242 26.2477 3.02242C25.928 3.02242 25.7273 3.13134 25.641 3.35144C25.557 3.57381 25.5127 4.04805 25.5127 4.7787V11.4816C25.5127 12.185 25.557 12.6411 25.641 12.8544C25.7297 13.0699 25.9187 13.1766 26.2197 13.1766C26.5207 13.1766 26.6957 13.0699 26.782 12.8544C26.8707 12.6411 26.9173 12.1396 26.9173 11.3477V9.53924H30.7743V10.0997C30.7743 11.5905 30.6647 12.6502 30.45 13.2742C30.233 13.8982 29.7523 14.445 29.0103 14.9147C28.2683 15.3844 27.3513 15.6204 26.2663 15.6204C25.1813 15.6204 24.2013 15.4184 23.4687 15.0214C22.736 14.622 22.2483 14.0729 22.0103 13.3695C21.7723 12.6638 21.6533 11.6041 21.6533 10.1905V5.97224C21.6533 4.93073 21.6907 4.15243 21.763 3.63281C21.8377 3.11319 22.0547 2.60945 22.421 2.13067C22.785 1.64963 23.2867 1.26842 23.933 0.991591C24.577 0.717032 25.319 0.578617 26.1543 0.578617C27.293 0.578617 28.231 0.794181 28.9707 1.22077C29.708 1.64963 30.1933 2.18286 30.429 2.82048C30.66 3.46036 30.7767 4.45422 30.7767 5.80206V7.17485H30.7743ZM39.382 3.48305V5.96316H37.2633V15.3141H33.5673V5.96316H31.4417V3.48532H39.3797L39.382 3.48305ZM43.89 3.48305L43.827 4.52683C44.156 4.10478 44.5177 3.78938 44.9167 3.58289C45.3133 3.37186 45.7497 3.26975 46.2187 3.26975C46.795 3.26975 47.2897 3.41951 47.7073 3.71903C48.1273 4.02082 48.3887 4.36345 48.4937 4.75601C48.5963 5.14856 48.65 5.81567 48.65 6.7528V11.738C48.65 12.8158 48.5847 13.5782 48.454 14.0343C48.3233 14.4881 48.0527 14.8489 47.6467 15.1212C47.2407 15.3912 46.7483 15.5251 46.1767 15.5251C45.717 15.5251 45.29 15.4207 44.9003 15.2142C44.5083 15.0032 44.1513 14.6969 43.8293 14.2862V16.9977H40.124V3.48532H43.8923L43.89 3.48305ZM44.9447 6.92525C44.9447 6.19461 44.9167 5.74987 44.863 5.59784C44.807 5.44354 44.653 5.36412 44.4033 5.36412C44.1537 5.36412 44.002 5.45489 43.932 5.63187C43.862 5.81113 43.8293 6.24453 43.8293 6.92525V11.8265C43.8293 12.5412 43.8643 12.986 43.939 13.1652C44.0113 13.3445 44.17 13.433 44.415 13.433C44.66 13.433 44.8023 13.3513 44.8583 13.1857C44.9167 13.0246 44.947 12.6252 44.947 11.9967V6.92525H44.9447ZM58.247 7.64002V10.5376C58.247 11.5996 58.191 12.3824 58.0813 12.8771C57.9717 13.374 57.736 13.8346 57.3743 14.268C57.015 14.6969 56.5507 15.0168 55.9883 15.221C55.4213 15.4275 54.7703 15.5274 54.04 15.5274C53.221 15.5274 52.528 15.4411 51.9587 15.2664C51.3893 15.0894 50.9483 14.8239 50.6357 14.4722C50.3207 14.1183 50.0943 13.6894 49.959 13.1879C49.8237 12.6865 49.7583 11.9331 49.7583 10.9302V7.89642C49.7583 6.79818 49.8797 5.94047 50.1247 5.32101C50.3697 4.70382 50.8107 4.20689 51.4453 3.83249C52.08 3.45809 52.8943 3.26975 53.8837 3.26975C54.7167 3.26975 55.4307 3.39229 56.0233 3.63281C56.6207 3.87333 57.0803 4.18647 57.4023 4.57221C57.7267 4.95796 57.946 5.35731 58.0697 5.76575C58.1887 6.17646 58.247 6.80045 58.247 7.64002ZM54.5417 6.74827C54.5417 6.14015 54.5067 5.75894 54.4413 5.60011C54.3713 5.44127 54.229 5.36185 54.0097 5.36185C53.7903 5.36185 53.6433 5.44127 53.571 5.60011C53.4963 5.75894 53.459 6.13788 53.459 6.74827V12.0852C53.459 12.6456 53.4963 13.0109 53.571 13.1766C53.6433 13.3468 53.788 13.433 54.0003 13.433C54.2127 13.433 54.3667 13.3536 54.4343 13.2015C54.5067 13.0473 54.5417 12.7114 54.5417 12.2032V6.74827ZM68.642 15.3141H65.4127V8.91978L62.8367 15.3141H59.4627V3.48532H62.6897V9.82288L65.2213 3.48532H68.642V15.3163V15.3141ZM65.0767 0H66.6353C66.598 0.805526 66.3577 1.45675 65.905 1.95142C65.457 2.44381 64.8317 2.69341 64.0313 2.69341C63.231 2.69341 62.601 2.44381 62.1577 1.94688C61.7143 1.44995 61.4763 0.798719 61.439 0H62.9977C63.07 0.812333 63.4177 1.22077 64.0337 1.22077C64.6497 1.22077 65.0067 0.812333 65.079 0L65.0767 0ZM78.6893 15.3141H75.4623V8.74506L73.4533 15.3141H70.07V0.873599H73.297V7.38815L75.4623 0.873599H78.6893V15.3163V15.3141ZM88.809 15.3141H85.127V10.9529H83.797V15.3141H80.1197V3.48532H83.797V7.73986H85.127V3.48532H88.809V15.3163V15.3141ZM98.7093 12.1941C98.7093 13.399 98.441 14.2204 97.8997 14.6583C97.3583 15.094 96.1847 15.3118 94.374 15.3118H90.1297V3.48532H94.5023C96.0003 3.48532 97.034 3.72584 97.5963 4.20916C98.1633 4.6902 98.4433 5.51161 98.4433 6.67792C98.4433 8.01668 97.7293 8.77683 96.299 8.96063C97.0433 9.07862 97.6313 9.36225 98.063 9.81153C98.4923 10.2585 98.707 10.8213 98.707 11.4997V12.1963L98.7093 12.1941ZM93.807 7.87827C94.367 7.87827 94.7123 7.80793 94.836 7.67178C94.962 7.53564 95.0227 7.26335 95.0227 6.86172C95.0227 6.52136 94.955 6.28764 94.8127 6.15603C94.6727 6.02443 94.3367 5.96089 93.8047 5.96089V7.87827H93.807ZM95.025 11.6381V11.2365C95.025 10.726 94.9573 10.406 94.815 10.279C94.675 10.1519 94.339 10.0884 93.807 10.0884V12.8271C94.3017 12.8271 94.626 12.7568 94.787 12.6161C94.9457 12.4754 95.025 12.151 95.025 11.6381ZM108.173 9.60505H103.376V12.1646C103.376 12.7001 103.416 13.045 103.495 13.1993C103.577 13.3513 103.731 13.4307 103.955 13.4307C104.237 13.4307 104.424 13.3263 104.517 13.1244C104.61 12.9179 104.662 12.5208 104.662 11.9354V10.3743H108.173V11.2479C108.173 11.9785 108.124 12.5412 108.029 12.9338C107.935 13.3263 107.714 13.7439 107.366 14.1909C107.016 14.6356 106.575 14.9692 106.041 15.1915C105.509 15.4162 104.837 15.5251 104.029 15.5251C103.222 15.5251 102.559 15.4162 101.957 15.1961C101.36 14.976 100.893 14.6765 100.562 14.293C100.228 13.9095 99.995 13.4875 99.8667 13.0268C99.7383 12.5639 99.6753 11.8946 99.6753 11.0164V7.56514C99.6753 6.53043 99.82 5.71583 100.105 5.11906C100.392 4.52229 100.865 4.06394 101.519 3.74626C102.172 3.42632 102.923 3.26749 103.773 3.26749C104.811 3.26749 105.67 3.45809 106.344 3.84383C107.021 4.22731 107.492 4.73558 107.765 5.36866C108.038 6.00174 108.176 6.89122 108.176 8.03711V9.60731L108.173 9.60505ZM104.459 7.67859V6.81407C104.459 6.20142 104.424 5.80659 104.358 5.62734C104.288 5.45035 104.151 5.35958 103.945 5.35958C103.689 5.35958 103.53 5.43446 103.469 5.58876C103.406 5.74079 103.376 6.14923 103.376 6.81407V7.67859H104.459ZM117.567 7.94634H114.074V6.58262C114.074 6.10838 114.035 5.78617 113.955 5.61599C113.874 5.44581 113.731 5.35958 113.514 5.35958C113.297 5.35958 113.157 5.43446 113.085 5.58422C113.01 5.73398 112.973 6.06527 112.973 6.58262V12.1623C112.973 12.5821 113.029 12.8975 113.139 13.1108C113.248 13.3195 113.412 13.4262 113.624 13.4262C113.874 13.4262 114.046 13.3173 114.135 13.0949C114.221 12.8748 114.266 12.4596 114.266 11.8469V10.4378H117.567C117.56 11.384 117.528 12.0942 117.46 12.5639C117.397 13.0359 117.194 13.5215 116.846 14.0184C116.503 14.5154 116.051 14.8898 115.495 15.1416C114.938 15.3935 114.252 15.5183 113.433 15.5183C112.387 15.5183 111.559 15.3458 110.948 14.9987C110.339 14.6515 109.902 14.1636 109.648 13.5351C109.394 12.9088 109.27 12.0194 109.27 10.8667V7.50614C109.27 6.49867 109.373 5.74079 109.58 5.23025C109.79 4.7197 110.231 4.26588 110.91 3.86426C111.589 3.46263 112.415 3.26068 113.386 3.26068C114.357 3.26068 115.176 3.45809 115.862 3.85745C116.548 4.25681 117 4.75828 117.229 5.36412C117.453 5.97224 117.567 6.82995 117.567 7.9418V7.94634ZM126.002 3.47851V5.95862H123.884V15.3095H120.188V5.96316H118.062V3.48532H126L126.002 3.47851Z" fill="#007fff"/>
</g>
<defs>
<clipPath id="clip0_336_156">
<rect width="126" height="17" fill="#007fff"/>
</clipPath>
</defs>
</svg>
