<svg width="172" height="80" viewBox="0 0 172 80" fill="none" xmlns="http://www.w3.org/2000/svg">
<mask id="mask0_135_1947" style="mask-type:luminance" maskUnits="userSpaceOnUse" x="-11" y="0" width="183" height="80">
<path d="M172 0H-11V80H172V0Z" fill="white"/>
</mask>
<g mask="url(#mask0_135_1947)">
<path d="M103.629 28.304L65.0549 0L46.3143 14.0024V6.64059H43.2629V16.2826L-11 56.8265L65.4917 4.89888L103.629 28.304Z" fill="#EB602C"/>
<path d="M27.9156 57.6506C28.2159 58.3325 28.6276 58.9354 29.1399 59.4425C29.6528 59.9508 30.2603 60.3541 30.9457 60.6417C31.6326 60.9306 32.3624 61.0768 33.1142 61.0768H40.6575C41.4479 61.0768 42.1996 60.918 42.891 60.6041C43.5717 60.296 44.1719 59.8807 44.6742 59.37C45.1757 58.8597 45.578 58.26 45.8698 57.5864C46.1643 56.9057 46.3137 56.1786 46.3137 55.426V47.8895C46.3137 47.1012 46.1549 46.3503 45.8406 45.6582C45.5313 44.9764 45.1128 44.3768 44.5971 43.8748C44.0829 43.374 43.4781 42.9735 42.7999 42.6813C42.1146 42.3879 41.3939 42.2385 40.6574 42.2385H33.1141C32.3254 42.2385 31.5743 42.3974 30.8806 42.7118C30.1992 43.0198 29.5971 43.4375 29.0915 43.9518C28.5854 44.4664 28.1829 45.0668 27.8947 45.7372C27.6049 46.4141 27.4579 47.1381 27.4579 47.8894V49.787H24.0814V42.2385H20.3242V61.0768H24.0814V53.5404H27.4579V55.4258C27.4579 56.2129 27.6121 56.961 27.9156 57.6506ZM31.215 47.4735C31.215 46.6558 31.8787 45.9922 32.6976 45.9922H41.0742C41.8931 45.9922 42.557 46.6558 42.557 47.4735V55.8423C42.557 56.6601 41.8931 57.3236 41.0742 57.3236H32.6976C31.8787 57.3236 31.215 56.6601 31.215 55.8423V47.4735Z" fill="black"/>
<path d="M48.6582 61.0766H52.4154V45.9921H63.4753V42.2383H48.6582V61.0766Z" fill="black"/>
<path d="M89.8164 45.9921H97.3591V61.0766H101.116V45.9921H108.672V42.2383H89.8164V45.9921Z" fill="black"/>
<path d="M129.935 51.9536C130.225 51.3163 130.373 50.6345 130.373 49.9279V47.5453C130.354 46.8066 130.186 46.1042 129.874 45.4582C129.566 44.8197 129.157 44.2551 128.655 43.7837C128.151 43.3111 127.554 42.9309 126.877 42.6553C126.197 42.3786 125.468 42.2383 124.716 42.2383H111.516V61.0766H115.272V55.236H124.716C125.506 55.236 126.256 55.0888 126.946 54.7984C127.628 54.5121 128.23 54.1203 128.737 53.635C129.245 53.1507 129.646 52.5851 129.935 51.9536ZM126.615 49.9279C126.615 50.4343 126.435 50.8496 126.065 51.197C125.696 51.5447 125.254 51.7138 124.716 51.7138H115.272V45.7726H124.716C125.254 45.7726 125.696 45.9408 126.065 46.2899C126.435 46.6363 126.615 47.0521 126.615 47.5585V49.9279Z" fill="black"/>
<path d="M150.978 47.8891C150.978 47.1161 150.819 46.3747 150.504 45.6873C150.197 45.0117 149.779 44.4121 149.263 43.9077C148.751 43.4035 148.152 42.9966 147.486 42.6983C146.805 42.3926 146.077 42.2383 145.321 42.2383H137.778C137.008 42.2383 136.267 42.3925 135.576 42.6962C134.892 42.9966 134.289 43.4048 133.784 43.9107C133.277 44.4183 132.869 45.0186 132.574 45.6961C132.273 46.3818 132.123 47.1192 132.123 47.8891V55.4256C132.123 56.2074 132.268 56.9534 132.558 57.6415C132.846 58.3259 133.251 58.9313 133.76 59.4402C134.27 59.9493 134.876 60.353 135.56 60.6414C136.249 60.9304 136.994 61.0766 137.778 61.0766H145.321C146.094 61.0766 146.833 60.9229 147.52 60.6178C148.196 60.3182 148.797 59.9125 149.302 59.4117C149.811 58.9083 150.221 58.3081 150.52 57.6261C150.823 56.9366 150.978 56.196 150.978 55.4255V47.8891ZM147.222 55.8421C147.222 56.6598 146.558 57.3233 145.738 57.3233H137.361C136.542 57.3233 135.879 56.6598 135.879 55.8421V47.4733C135.879 46.6554 136.542 45.992 137.361 45.992H145.738C146.558 45.992 147.222 46.6554 147.222 47.4733V55.8421Z" fill="black"/>
<path d="M168.243 47.8886V61.0766H172V42.2383H168.587L156.902 55.2011V42.2383H153.145V61.0766H156.562L168.243 47.8886Z" fill="black"/>
<path d="M72.9233 46.5411C73.2932 46.1713 73.7348 45.9921 74.2734 45.9921H81.8167H87.0986H87.4946V42.2383H81.8169H74.2592C73.474 42.256 72.7271 42.4238 72.0397 42.7351C71.3604 43.0426 70.7594 43.4547 70.254 43.9598C69.746 44.4675 69.3422 45.0659 69.054 45.7369C68.7642 46.4138 68.6172 47.1378 68.6172 47.8891V55.4256C68.6172 56.2114 68.7686 56.959 69.0677 57.6479C69.3637 58.3311 69.7765 58.9357 70.2952 59.4441C70.8116 59.9519 71.4201 60.3538 72.1051 60.6414C72.7875 60.9286 73.5124 61.0739 74.2593 61.0757L74.2736 61.0766H81.817H87.4947V57.3226H87.1269H81.8244H74.2663C73.7312 57.3207 73.2919 57.1423 72.9234 56.7741C72.5537 56.4046 72.3738 55.9632 72.3738 55.4255V47.889C72.3738 47.3513 72.5533 46.9101 72.9233 46.5411Z" fill="black"/>
<path d="M164.294 36.5505H160.889V39.9525H164.294V36.5505Z" fill="black"/>
<path d="M20.3242 79.8421V71.6956H27.31V72.8608H21.4904V79.8419L20.3242 79.8421ZM29.287 79.8421V71.6956H35.1082C35.4189 71.6956 35.7137 71.7555 35.995 71.8776C36.2745 71.9978 36.5194 72.1627 36.7285 72.3722C36.9363 72.5798 37.1049 72.8257 37.2352 73.1108C37.3632 73.3937 37.4314 73.7 37.439 74.0256V75.1891C37.439 75.5012 37.3786 75.7941 37.2605 76.0734C37.1401 76.352 36.975 76.5984 36.7655 76.812C36.5557 77.025 36.3073 77.1957 36.0242 77.3237C35.7389 77.4498 35.4346 77.5138 35.1082 77.5138H30.4532V79.8422L29.287 79.8421ZM30.4532 76.3544H35.1082C35.4346 76.3544 35.7101 76.2418 35.935 76.017C36.16 75.7899 36.2728 75.5148 36.2728 75.1891V74.0256C36.2728 73.7 36.1601 73.4248 35.935 73.1983C35.7102 72.973 35.4348 72.8608 35.1082 72.8608H30.4532V76.3544ZM39.6486 74.0257V71.6975H40.8148V74.0257C40.8148 74.3519 40.9272 74.627 41.1526 74.8519C41.3795 75.0767 41.6553 75.1894 41.9812 75.1894H46.6363V71.6976H47.8026V77.5139C47.8026 77.8238 47.7425 78.1188 47.6204 78.3998C47.5 78.6786 47.3332 78.925 47.1235 79.1385C46.9116 79.3498 46.6655 79.5206 46.3842 79.6484C46.1006 79.7782 45.7981 79.8422 45.4721 79.8422H42.2079C41.8878 79.8422 41.5908 79.7822 41.3117 79.6638C41.0322 79.5434 40.7877 79.3786 40.5782 79.1691C40.3687 78.9601 40.2018 78.7119 40.0774 78.4287C39.9553 78.144 39.8894 77.8395 39.8818 77.5139H41.0477C41.0477 77.8395 41.1604 78.1147 41.3836 78.3395C41.6067 78.5647 41.8821 78.6769 42.208 78.6769H45.4702C45.7963 78.6769 46.0716 78.5648 46.2986 78.3395C46.5239 78.1148 46.6363 77.8374 46.6363 77.5139V76.3545H41.9791C41.6688 76.3545 41.3717 76.2942 41.0863 76.1721C40.8032 76.0518 40.553 75.8868 40.3394 75.6779C40.1261 75.4703 39.9569 75.2239 39.8329 74.941C39.7109 74.6559 39.6486 74.3519 39.6486 74.0257ZM50.352 79.8422V71.6958H58.5041V79.8422H57.3377V72.861H51.5183V79.8422H50.352ZM61.0613 79.8422V71.6958H69.2134V79.8422H68.0471V72.861H62.2277V79.8422H61.0613ZM71.7707 79.8422V74.024C71.7707 73.7141 71.8306 73.419 71.9532 73.142C72.0731 72.8628 72.2381 72.6164 72.4479 72.4034C72.6556 72.1881 72.9017 72.0174 73.1854 71.8894C73.4703 71.7596 73.7751 71.6958 74.1011 71.6958H77.5919C77.9024 71.6958 78.1974 71.7557 78.4786 71.8777C78.7582 71.9979 79.0031 72.1627 79.212 72.3723C79.4198 72.5799 79.5887 72.8258 79.7188 73.111C79.847 73.3938 79.915 73.6983 79.9226 74.024V79.8422H78.7564V77.5138H72.9368V79.8422H71.7707ZM72.9368 76.3545H78.7564V74.0258C78.7564 73.7002 78.6437 73.425 78.4187 73.1985C78.1937 72.9732 77.9182 72.861 77.5918 72.861H74.1009C73.775 72.861 73.4994 72.9731 73.2746 73.1985C73.0492 73.425 72.9367 73.7002 72.9367 74.0258L72.9368 76.3545ZM88.5319 79.8422V71.6976H89.6981V75.1894H91.5511L95.042 71.6976H96.6858L92.6088 75.769L96.6858 79.8422H95.042L91.5511 76.3546H89.6981V79.8422H88.5319ZM98.5464 77.5138V74.024C98.5464 73.7061 98.6087 73.4056 98.7309 73.1244C98.8549 72.8416 99.022 72.5953 99.2312 72.3857C99.4431 72.1763 99.6894 72.0079 99.9746 71.8836C100.258 71.7579 100.559 71.6959 100.877 71.6959H104.37C104.68 71.6959 104.976 71.758 105.253 71.8836C105.532 72.0079 105.779 72.1765 105.992 72.3857C106.208 72.5953 106.378 72.8416 106.506 73.1244C106.637 73.4055 106.701 73.7059 106.701 74.024V77.5138C106.701 77.8318 106.638 78.1322 106.512 78.4152C106.388 78.7002 106.219 78.9462 106.01 79.1538C105.799 79.3632 105.553 79.5299 105.27 79.6537C104.988 79.7799 104.689 79.8421 104.37 79.8421H100.877C100.551 79.8421 100.246 79.7821 99.9631 79.6637C99.6776 79.5433 99.4315 79.3785 99.22 79.169C99.0103 78.9578 98.8454 78.7118 98.725 78.4266C98.6064 78.1438 98.5464 77.8394 98.5464 77.5138ZM99.7127 77.5115C99.7127 77.8373 99.825 78.1129 100.05 78.3394C100.277 78.5646 100.553 78.6768 100.879 78.6768H104.369C104.695 78.6768 104.969 78.5647 105.197 78.3394C105.422 78.1129 105.534 77.8374 105.534 77.5115V74.0257C105.534 73.7001 105.422 73.4249 105.197 73.1984C104.969 72.9731 104.695 72.8609 104.369 72.8609H100.879C100.553 72.8609 100.277 72.973 100.05 73.1984C99.8251 73.4249 99.7127 73.7001 99.7127 74.0257V77.5115ZM109.137 79.8422V71.6976H110.303L113.799 76.7363L117.29 71.6976H118.455V79.8422H117.29V73.7817L113.799 78.8205L110.303 73.7817V79.8422H109.137ZM121.01 79.8422V71.6958H129.163V79.8422H127.996V72.861H122.177V79.8422H121.01ZM131.72 79.8422V74.024C131.72 73.7141 131.78 73.419 131.902 73.142C132.022 72.8628 132.187 72.6164 132.397 72.4034C132.604 72.1881 132.851 72.0174 133.135 71.8894C133.42 71.7596 133.724 71.6958 134.05 71.6958H137.541C137.852 71.6958 138.147 71.7557 138.428 71.8777C138.707 71.9979 138.952 72.1627 139.161 72.3723C139.37 72.5799 139.538 72.8258 139.668 73.111C139.796 73.3938 139.864 73.6983 139.872 74.024V79.8422H138.705V77.5138H132.886V79.8422H131.72ZM132.886 76.3545H138.705V74.0258C138.705 73.7002 138.593 73.425 138.368 73.1985C138.144 72.9732 137.868 72.861 137.541 72.861H134.05C133.724 72.861 133.448 72.9731 133.223 73.1985C132.998 73.425 132.886 73.7002 132.886 74.0258V76.3545ZM142.429 79.8422V71.6976H143.596V75.1894H149.415V71.6976H150.581V79.8422H149.415V76.3545H143.596V79.8422H142.429ZM153.138 79.8422V71.6976H154.305V78.1553L160.124 71.6976H161.291V79.8422H160.124V73.2699L154.305 79.8422H153.138ZM163.848 79.8422V71.6976H165.014V78.1553L170.833 71.6976H172V79.8422H170.833V73.2699L165.014 79.8422H163.848ZM165.598 69.3753H166.757C166.757 69.7009 166.869 69.9761 167.094 70.2009C167.321 70.426 167.597 70.5383 167.923 70.5383C168.249 70.5383 168.524 70.4262 168.751 70.2009C168.977 69.9762 169.089 69.701 169.089 69.3753H170.255C170.255 69.6851 170.195 69.9802 170.074 70.2571C169.952 70.5364 169.788 70.7828 169.578 70.9959C169.37 71.2111 169.124 71.3796 168.838 71.5075C168.554 71.6337 168.249 71.6977 167.923 71.6977C167.605 71.6977 167.306 71.6378 167.028 71.5194C166.749 71.3991 166.504 71.2342 166.295 71.0252C166.083 70.8158 165.918 70.5695 165.794 70.2865C165.672 70.0055 165.606 69.7009 165.598 69.3753Z" fill="#EB602C"/>
</g>
</svg>
